<?xml version="1.0" encoding="UTF-8" standalone="no"?>
<!-- Created with Inkscape (http://www.inkscape.org/) -->

<svg
   width="33.602081mm"
   height="38.100006mm"
   viewBox="0 0 33.602081 38.100006"
   version="1.1"
   id="svg1"
   xml:space="preserve"
   xmlns:inkscape="http://www.inkscape.org/namespaces/inkscape"
   xmlns:sodipodi="http://sodipodi.sourceforge.net/DTD/sodipodi-0.dtd"
   xmlns:xlink="http://www.w3.org/1999/xlink"
   xmlns="http://www.w3.org/2000/svg"
   xmlns:svg="http://www.w3.org/2000/svg"><sodipodi:namedview
     id="namedview1"
     pagecolor="#ffffff"
     bordercolor="#000000"
     borderopacity="0.25"
     inkscape:showpageshadow="2"
     inkscape:pageopacity="0.0"
     inkscape:pagecheckerboard="0"
     inkscape:deskcolor="#d1d1d1"
     inkscape:document-units="mm"><inkscape:page
       x="0"
       y="5.3445894e-15"
       width="33.602081"
       height="38.100002"
       id="page2"
       margin="0"
       bleed="0" /></sodipodi:namedview><defs
     id="defs1"><path
       id="a"
       d="m 75.354,33.239 h 51.433 v 90.792 H 75.354 Z" /><clipPath
       id="b"><use
         id="use1554"
         xlink:href="#a" /></clipPath></defs><g
     inkscape:label="Layer 1"
     inkscape:groupmode="layer"
     id="layer1"
     transform="translate(-62.309376,-66.939586)"><g
       id="g1"
       transform="matrix(0.26458333,0,0,0.26458333,59.834463,64.869748)"><path
         id="path1545"
         d="m 75.354,7.823 v 144 l 61,-35 v -74 z"
         fill="#eb743b"
         style="fill:#000000" /><path
         id="path1549"
         d="m 70.354,7.823 -61,35 v 74 l 61,35 z"
         fill="#353070"
         style="fill:#000000" /><g
         id="g1563"
         opacity="0.07"><path
           id="path1557"
           clip-path="url(#b)"
           d="m 92.657,99.557 a 2.1,2.1 0 0 1 1.819,-1.03 c 0.378,0 0.752,0.104 1.078,0.297 a 2.12,2.12 0 0 1 0.735,2.898 2.097,2.097 0 0 1 -1.817,1.032 c -0.379,0 -0.755,-0.105 -1.084,-0.301 a 2.092,2.092 0 0 1 -0.964,-1.294 2.1,2.1 0 0 1 0.233,-1.602 m 12.602,22.362 a 2.121,2.121 0 0 1 -2.981,-0.225 2.116,2.116 0 0 1 0.231,-2.981 2.08,2.08 0 0 1 1.373,-0.512 2.117,2.117 0 0 1 2.109,2.278 2.086,2.086 0 0 1 -0.732,1.44 M 95.734,63.08 a 2.128,2.128 0 0 1 2.916,-0.656 2.12,2.12 0 0 1 0.66,2.919 2.115,2.115 0 0 1 -2.919,0.661 2.128,2.128 0 0 1 -0.657,-2.924 m 6.379,-20.187 c -0.6,0.951 -1.937,1.271 -2.912,0.653 l -0.096,-0.062 a 2.107,2.107 0 0 1 -0.557,-2.851 2.093,2.093 0 0 1 1.784,-0.98 2.11,2.11 0 0 1 1.781,3.24 m 16.767,11.598 a 2.096,2.096 0 0 1 1.783,-0.98 c 0.4,0 0.79,0.113 1.125,0.325 0.481,0.304 0.813,0.775 0.937,1.33 a 2.08,2.08 0 0 1 -0.28,1.584 c -0.597,0.951 -1.938,1.273 -2.912,0.653 l -0.093,-0.062 a 2.105,2.105 0 0 1 -0.56,-2.85 m 0,23.463 a 2.096,2.096 0 0 1 1.783,-0.98 c 0.4,0 0.79,0.112 1.125,0.326 0.481,0.304 0.813,0.774 0.937,1.329 a 2.083,2.083 0 0 1 -0.28,1.585 c -0.597,0.95 -1.938,1.271 -2.912,0.652 l -0.093,-0.062 a 2.105,2.105 0 0 1 -0.56,-2.85 m 0,26.303 a 2.099,2.099 0 0 1 1.783,-0.98 c 0.4,0 0.79,0.113 1.125,0.326 0.481,0.304 0.813,0.775 0.937,1.33 a 2.08,2.08 0 0 1 -0.28,1.584 c -0.597,0.951 -1.938,1.271 -2.912,0.653 l -0.093,-0.062 a 2.107,2.107 0 0 1 -0.56,-2.851" /><path
           id="path1559"
           clip-path="url(#b)"
           d="m 108.53,113.927 a 6.11,6.11 0 0 0 -8.631,-0.662 6.12,6.12 0 0 0 -2.087,5.396 c -1.949,0.701 -4.258,1.366 -5.328,1.332 -0.822,-0.043 -1.302,-0.345 -2.224,-0.971 -1.172,-0.795 -2.418,-1.512 -4.149,-1.847 2.936,-2.761 6.009,-6.83 8.584,-12.834 a 6.15,6.15 0 0 0 5.039,-2.972 c 1.724,-2.896 0.773,-6.659 -2.124,-8.394 a 6.133,6.133 0 0 0 -3.134,-0.864 6.154,6.154 0 0 0 -5.261,2.986 6.079,6.079 0 0 0 -0.678,4.636 6.075,6.075 0 0 0 2.302,3.429 c -4.053,9.218 -9.219,13.08 -12.565,14.685 a 2.016,2.016 0 0 0 -0.361,0.168 c -1.186,0.531 -2.05,0.704 -2.558,0.808 v 4 c 0.275,-0.03 1.884,-0.118 4.247,-1.192 5.347,-1.357 6.839,-0.354 8.407,0.709 1.021,0.692 2.291,1.554 4.263,1.655 0.099,0.006 0.204,0.009 0.308,0.009 2.11,0 5.172,-1.022 7.021,-1.723 a 6.132,6.132 0 0 0 4.285,1.75 6.112,6.112 0 0 0 3.983,-1.476 6.072,6.072 0 0 0 2.119,-4.176 6.072,6.072 0 0 0 -1.458,-4.452 M 92.657,97.151 a 2.1141576,2.1141576 0 0 1 3.632,2.165 2.097,2.097 0 0 1 -1.817,1.032 c -0.379,0 -0.755,-0.105 -1.084,-0.301 a 2.092,2.092 0 0 1 -0.964,-1.294 2.101,2.101 0 0 1 0.233,-1.602 m 12.602,22.363 a 2.121,2.121 0 0 1 -2.981,-0.225 2.116,2.116 0 0 1 0.231,-2.981 2.08,2.08 0 0 1 1.373,-0.512 2.117,2.117 0 0 1 2.109,2.278 2.086,2.086 0 0 1 -0.732,1.44 m 1.045,-81.487 a 6.088,6.088 0 0 0 -2.708,-3.844 6.12,6.12 0 0 0 -3.264,-0.944 6.076,6.076 0 0 0 -5.174,2.85 6.108,6.108 0 0 0 0.144,6.758 c -3.646,4.124 -8.707,4.314 -9.943,4.293 -3.692,-1.604 -7.234,-2.164 -10.005,-2.317 v 3.996 c 2.442,0.144 5.553,0.686 8.748,2.136 0.005,0.002 0.01,0.002 0.015,0.005 3.445,1.562 6.334,3.927 8.607,7.041 a 6.364,6.364 0 0 0 -0.381,0.538 c -1.796,2.854 -0.943,6.643 1.903,8.444 0.98,0.622 2.111,0.951 3.269,0.951 a 6.105,6.105 0 0 0 5.183,-2.851 c 1.806,-2.851 0.951,-6.642 -1.908,-8.453 -1.384,-0.872 -3.092,-1.114 -4.667,-0.755 -1.538,-2.155 -3.323,-4.017 -5.345,-5.567 2.517,-0.778 5.401,-2.268 7.78,-5.095 a 6.18,6.18 0 0 0 1.77,0.266 6.08,6.08 0 0 0 5.172,-2.848 6.053,6.053 0 0 0 0.804,-4.604 m -10.57,22.647 a 2.128,2.128 0 0 1 2.916,-0.656 2.12,2.12 0 0 1 0.66,2.919 2.115,2.115 0 0 1 -2.919,0.661 2.128,2.128 0 0 1 -0.657,-2.924 m 6.379,-20.187 c -0.6,0.951 -1.937,1.271 -2.912,0.653 l -0.096,-0.062 a 2.107,2.107 0 0 1 -0.557,-2.851 2.093,2.093 0 0 1 1.784,-0.98 2.11,2.11 0 0 1 1.781,3.24" /><path
           id="path1561"
           clip-path="url(#b)"
           d="m 115,79.011 a 6.036,6.036 0 0 0 2.11,2.649 6.098,6.098 0 0 0 3.55,1.14 6.083,6.083 0 0 0 5.173,-2.848 6.064,6.064 0 0 0 0.805,-4.605 6.103,6.103 0 0 0 -2.709,-3.844 6.128,6.128 0 0 0 -3.266,-0.944 c -0.125,0 -0.25,0.008 -0.375,0.018 -0.71,-3.158 -0.919,-7.769 0.035,-11.265 0.113,0.011 0.225,0.024 0.337,0.024 a 6.08,6.08 0 0 0 5.173,-2.848 6.062,6.062 0 0 0 0.805,-4.604 6.103,6.103 0 0 0 -2.709,-3.844 6.128,6.128 0 0 0 -3.266,-0.944 6.079,6.079 0 0 0 -5.173,2.85 6.104,6.104 0 0 0 1.025,7.764 c 0.021,0.02 0.048,0.037 0.071,0.059 -1.349,4.518 -1.145,10.324 -0.036,14.417 -0.144,0.132 -0.294,0.254 -0.426,0.399 a 6.327,6.327 0 0 0 -0.634,0.825 6.2,6.2 0 0 0 -0.71,1.578 c -3.371,0.488 -5.198,1.671 -6.824,2.729 -2.035,1.324 -3.961,2.572 -9.636,2.666 -1.963,-0.23 -3.552,-0.178 -5.29,-0.116 -1.43,0.052 -2.91,0.105 -4.848,0.003 -1.335,-0.071 -2.104,-0.882 -3.458,-2.424 -1.803,-2.055 -4.219,-4.648 -9.369,-5.022 v 4 c 3.295,0.299 4.796,1.887 6.356,3.667 1.487,1.694 3.175,3.615 6.256,3.782 2.118,0.114 3.76,0.052 5.208,0.001 2.491,-0.092 4.453,-0.161 7.855,0.683 2.608,0.644 12.099,9.674 14.774,14.323 -0.109,0.142 -0.219,0.282 -0.314,0.434 -1.743,2.755 -1.026,6.385 1.62,8.251 0.072,0.052 0.151,0.104 0.283,0.191 0.981,0.621 2.11,0.948 3.267,0.948 a 6.081,6.081 0 0 0 5.173,-2.849 6.06,6.06 0 0 0 0.805,-4.603 6.1,6.1 0 0 0 -2.709,-3.845 6.128,6.128 0 0 0 -4.809,-0.749 c -2.56,-4.188 -8.652,-10.455 -13.189,-13.792 1.813,-0.628 3.05,-1.436 4.212,-2.188 1.427,-0.93 2.614,-1.69 4.857,-2.067 m 3.88,-26.926 a 2.096,2.096 0 0 1 1.783,-0.98 c 0.4,0 0.79,0.113 1.125,0.325 0.481,0.304 0.813,0.775 0.937,1.33 a 2.08,2.08 0 0 1 -0.28,1.584 c -0.597,0.951 -1.938,1.273 -2.912,0.653 l -0.093,-0.062 a 2.105,2.105 0 0 1 -0.56,-2.85 m 0,23.463 a 2.096,2.096 0 0 1 1.783,-0.98 c 0.4,0 0.79,0.112 1.125,0.326 0.481,0.304 0.813,0.774 0.937,1.329 a 2.083,2.083 0 0 1 -0.28,1.585 c -0.597,0.95 -1.938,1.272 -2.912,0.652 l -0.093,-0.062 a 2.105,2.105 0 0 1 -0.56,-2.85 m 0,26.304 a 2.099,2.099 0 0 1 1.783,-0.98 c 0.4,0 0.79,0.113 1.125,0.326 0.481,0.304 0.813,0.775 0.937,1.33 a 2.08,2.08 0 0 1 -0.28,1.584 c -0.597,0.951 -1.938,1.271 -2.912,0.653 l -0.093,-0.062 a 2.107,2.107 0 0 1 -0.56,-2.851" /></g><path
         id="path1565"
         d="m 108.53,116.927 a 6.11,6.11 0 0 0 -8.631,-0.662 6.12,6.12 0 0 0 -2.087,5.396 c -1.949,0.701 -4.258,1.366 -5.328,1.332 -0.822,-0.043 -1.302,-0.345 -2.224,-0.971 -1.172,-0.795 -2.418,-1.512 -4.149,-1.847 2.936,-2.761 6.009,-6.83 8.584,-12.834 a 6.15,6.15 0 0 0 5.039,-2.972 c 1.724,-2.896 0.773,-6.659 -2.124,-8.394 a 6.133,6.133 0 0 0 -3.134,-0.864 6.154,6.154 0 0 0 -5.261,2.986 6.079,6.079 0 0 0 -0.678,4.636 6.075,6.075 0 0 0 2.302,3.429 c -4.053,9.218 -9.219,13.08 -12.565,14.685 a 2.016,2.016 0 0 0 -0.361,0.168 c -1.186,0.531 -2.05,0.704 -2.558,0.808 v 4 c 0.275,-0.03 1.884,-0.118 4.247,-1.192 5.347,-1.357 6.839,-0.354 8.407,0.709 1.021,0.692 2.291,1.554 4.263,1.655 0.099,0.006 0.204,0.009 0.308,0.009 2.11,0 5.172,-1.022 7.021,-1.723 a 6.132,6.132 0 0 0 4.285,1.75 6.112,6.112 0 0 0 3.983,-1.476 6.072,6.072 0 0 0 2.119,-4.176 6.072,6.072 0 0 0 -1.458,-4.452 M 92.657,100.151 a 2.1141576,2.1141576 0 0 1 3.632,2.165 2.097,2.097 0 0 1 -1.817,1.032 c -0.379,0 -0.755,-0.105 -1.084,-0.301 a 2.092,2.092 0 0 1 -0.964,-1.294 2.101,2.101 0 0 1 0.233,-1.602 m 12.602,22.363 a 2.121,2.121 0 0 1 -2.981,-0.225 2.116,2.116 0 0 1 0.231,-2.981 2.08,2.08 0 0 1 1.373,-0.512 2.117,2.117 0 0 1 2.109,2.278 2.086,2.086 0 0 1 -0.732,1.44"
         fill="#d3562c"
         style="fill:#000000" /><path
         id="path1567"
         d="" /><path
         id="path1569"
         d="m 106.304,40.031 a 6.088,6.088 0 0 0 -2.708,-3.844 6.12,6.12 0 0 0 -3.264,-0.944 6.076,6.076 0 0 0 -5.174,2.85 6.108,6.108 0 0 0 0.144,6.758 c -3.646,4.124 -8.707,4.314 -9.943,4.293 C 81.667,47.54 78.125,46.98 75.354,46.827 v 3.996 c 2.442,0.144 5.553,0.686 8.748,2.136 0.005,0.002 0.01,0.002 0.015,0.005 3.445,1.562 6.334,3.927 8.607,7.041 a 6.206,6.206 0 0 0 -0.381,0.538 c -1.796,2.854 -0.943,6.643 1.903,8.444 0.98,0.622 2.111,0.951 3.269,0.951 a 6.105,6.105 0 0 0 5.183,-2.851 c 1.806,-2.851 0.951,-6.642 -1.908,-8.453 -1.384,-0.872 -3.092,-1.114 -4.667,-0.755 -1.538,-2.155 -3.323,-4.017 -5.345,-5.567 2.517,-0.778 5.401,-2.268 7.78,-5.095 a 6.18,6.18 0 0 0 1.77,0.266 6.08,6.08 0 0 0 5.172,-2.849 6.05,6.05 0 0 0 0.804,-4.603 m -10.57,22.647 a 2.128,2.128 0 0 1 2.916,-0.656 2.12,2.12 0 0 1 0.66,2.919 2.115,2.115 0 0 1 -2.919,0.661 2.128,2.128 0 0 1 -0.657,-2.924 m 6.379,-20.187 c -0.6,0.951 -1.937,1.271 -2.912,0.653 l -0.096,-0.062 a 2.107,2.107 0 0 1 -0.557,-2.851 2.093,2.093 0 0 1 1.784,-0.98 2.11,2.11 0 0 1 1.781,3.24"
         fill="#d3562c"
         style="fill:#000000" /><path
         id="path1571"
         d="m 115,82.011 a 6.036,6.036 0 0 0 2.11,2.649 6.098,6.098 0 0 0 3.55,1.14 6.081,6.081 0 0 0 5.173,-2.849 6.063,6.063 0 0 0 0.805,-4.604 6.103,6.103 0 0 0 -2.709,-3.844 6.128,6.128 0 0 0 -3.266,-0.944 c -0.125,0 -0.25,0.008 -0.375,0.018 -0.71,-3.158 -0.919,-7.769 0.035,-11.265 0.113,0.011 0.225,0.024 0.337,0.024 a 6.08,6.08 0 0 0 5.173,-2.848 6.062,6.062 0 0 0 0.805,-4.604 6.103,6.103 0 0 0 -2.709,-3.844 6.128,6.128 0 0 0 -3.266,-0.944 6.079,6.079 0 0 0 -5.173,2.85 6.104,6.104 0 0 0 1.025,7.764 c 0.021,0.02 0.048,0.037 0.071,0.059 -1.349,4.518 -1.145,10.324 -0.036,14.417 -0.144,0.132 -0.294,0.254 -0.426,0.399 a 6.327,6.327 0 0 0 -0.634,0.825 6.2,6.2 0 0 0 -0.71,1.578 c -3.371,0.488 -5.198,1.671 -6.824,2.729 -2.035,1.323 -3.961,2.571 -9.636,2.665 -1.963,-0.23 -3.552,-0.178 -5.29,-0.116 -1.43,0.052 -2.91,0.105 -4.848,0.003 -1.335,-0.071 -2.104,-0.882 -3.458,-2.424 -1.803,-2.055 -4.219,-4.648 -9.369,-5.022 v 4 c 3.295,0.298 4.796,1.887 6.356,3.667 1.487,1.694 3.175,3.615 6.256,3.782 2.118,0.114 3.76,0.052 5.208,10e-4 2.491,-0.092 4.453,-0.161 7.855,0.683 2.608,0.644 12.099,9.674 14.774,14.323 -0.109,0.142 -0.219,0.282 -0.314,0.434 -1.743,2.755 -1.026,6.385 1.62,8.251 0.072,0.052 0.151,0.104 0.283,0.191 0.981,0.621 2.11,0.948 3.267,0.948 a 6.081,6.081 0 0 0 5.173,-2.849 6.06,6.06 0 0 0 0.805,-4.603 6.1,6.1 0 0 0 -2.709,-3.845 6.128,6.128 0 0 0 -4.809,-0.749 c -2.56,-4.188 -8.652,-10.455 -13.189,-13.792 1.813,-0.628 3.05,-1.436 4.212,-2.188 1.427,-0.929 2.614,-1.689 4.857,-2.066 m 3.88,-26.926 a 2.096,2.096 0 0 1 1.783,-0.98 c 0.4,0 0.79,0.113 1.125,0.325 0.481,0.304 0.813,0.775 0.937,1.33 a 2.08,2.08 0 0 1 -0.28,1.584 c -0.597,0.951 -1.938,1.273 -2.912,0.653 l -0.093,-0.062 a 2.105,2.105 0 0 1 -0.56,-2.85 m 0,23.463 a 2.096,2.096 0 0 1 1.783,-0.98 c 0.4,0 0.79,0.112 1.125,0.326 0.481,0.304 0.813,0.774 0.937,1.329 a 2.084,2.084 0 0 1 -0.28,1.585 c -0.597,0.95 -1.938,1.271 -2.912,0.652 l -0.093,-0.062 a 2.105,2.105 0 0 1 -0.56,-2.85 m 0,26.304 a 2.099,2.099 0 0 1 1.783,-0.98 c 0.4,0 0.79,0.113 1.125,0.326 0.481,0.304 0.813,0.775 0.937,1.33 a 2.08,2.08 0 0 1 -0.28,1.584 c -0.597,0.951 -1.938,1.271 -2.912,0.653 l -0.093,-0.062 a 2.107,2.107 0 0 1 -0.56,-2.851"
         fill="#d3562c"
         style="fill:#000000" /><path
         id="path1573"
         d="m 108.53,113.927 a 6.11,6.11 0 0 0 -8.631,-0.662 6.12,6.12 0 0 0 -2.087,5.396 c -1.949,0.701 -4.258,1.366 -5.328,1.332 -0.822,-0.043 -1.302,-0.345 -2.224,-0.971 -1.172,-0.795 -2.418,-1.512 -4.149,-1.847 2.936,-2.761 6.009,-6.83 8.584,-12.834 a 6.15,6.15 0 0 0 5.039,-2.972 c 1.724,-2.896 0.773,-6.659 -2.124,-8.394 a 6.133,6.133 0 0 0 -3.134,-0.864 6.154,6.154 0 0 0 -5.261,2.986 6.079,6.079 0 0 0 -0.678,4.636 6.075,6.075 0 0 0 2.302,3.429 c -4.053,9.218 -9.219,13.08 -12.565,14.685 a 2.016,2.016 0 0 0 -0.361,0.168 c -1.186,0.531 -2.05,0.704 -2.558,0.808 v 4 c 0.275,-0.03 1.884,-0.118 4.247,-1.192 5.347,-1.357 6.839,-0.354 8.407,0.709 1.021,0.692 2.291,1.554 4.263,1.655 0.099,0.006 0.204,0.009 0.308,0.009 2.11,0 5.172,-1.022 7.021,-1.723 a 6.132,6.132 0 0 0 4.285,1.75 6.112,6.112 0 0 0 3.983,-1.476 6.072,6.072 0 0 0 2.119,-4.176 6.072,6.072 0 0 0 -1.458,-4.452 M 92.657,97.151 a 2.1141576,2.1141576 0 0 1 3.632,2.165 2.097,2.097 0 0 1 -1.817,1.032 c -0.379,0 -0.755,-0.105 -1.084,-0.301 a 2.092,2.092 0 0 1 -0.964,-1.294 2.101,2.101 0 0 1 0.233,-1.602 m 12.602,22.363 a 2.121,2.121 0 0 1 -2.981,-0.225 2.116,2.116 0 0 1 0.231,-2.981 2.08,2.08 0 0 1 1.373,-0.512 2.117,2.117 0 0 1 2.109,2.278 2.086,2.086 0 0 1 -0.732,1.44 m 1.045,-81.487 a 6.088,6.088 0 0 0 -2.708,-3.844 6.12,6.12 0 0 0 -3.264,-0.944 6.076,6.076 0 0 0 -5.174,2.85 6.108,6.108 0 0 0 0.144,6.758 c -3.646,4.124 -8.707,4.314 -9.943,4.293 -3.692,-1.604 -7.234,-2.164 -10.005,-2.317 v 3.996 c 2.442,0.144 5.553,0.686 8.748,2.136 0.005,0.002 0.01,0.002 0.015,0.005 3.445,1.562 6.334,3.927 8.607,7.041 a 6.364,6.364 0 0 0 -0.381,0.538 c -1.796,2.854 -0.943,6.643 1.903,8.444 0.98,0.622 2.111,0.951 3.269,0.951 a 6.105,6.105 0 0 0 5.183,-2.851 c 1.806,-2.851 0.951,-6.642 -1.908,-8.453 -1.384,-0.872 -3.092,-1.114 -4.667,-0.755 -1.538,-2.155 -3.323,-4.017 -5.345,-5.567 2.517,-0.778 5.401,-2.268 7.78,-5.095 a 6.18,6.18 0 0 0 1.77,0.266 6.08,6.08 0 0 0 5.172,-2.848 6.053,6.053 0 0 0 0.804,-4.604 m -10.57,22.647 a 2.128,2.128 0 0 1 2.916,-0.656 2.12,2.12 0 0 1 0.66,2.919 2.115,2.115 0 0 1 -2.919,0.661 2.128,2.128 0 0 1 -0.657,-2.924 m 6.379,-20.187 c -0.6,0.951 -1.937,1.271 -2.912,0.653 l -0.096,-0.062 a 2.107,2.107 0 0 1 -0.557,-2.851 2.093,2.093 0 0 1 1.784,-0.98 2.11,2.11 0 0 1 1.781,3.24"
         fill="#fffedb"
         style="fill:#ffffff" /><path
         id="path1575"
         d="m 115,79.011 a 6.036,6.036 0 0 0 2.11,2.649 6.098,6.098 0 0 0 3.55,1.14 6.083,6.083 0 0 0 5.173,-2.848 6.064,6.064 0 0 0 0.805,-4.605 6.103,6.103 0 0 0 -2.709,-3.844 6.128,6.128 0 0 0 -3.266,-0.944 c -0.125,0 -0.25,0.008 -0.375,0.018 -0.71,-3.158 -0.919,-7.769 0.035,-11.265 0.113,0.011 0.225,0.024 0.337,0.024 a 6.08,6.08 0 0 0 5.173,-2.848 6.062,6.062 0 0 0 0.805,-4.604 6.103,6.103 0 0 0 -2.709,-3.844 6.128,6.128 0 0 0 -3.266,-0.944 6.079,6.079 0 0 0 -5.173,2.85 6.104,6.104 0 0 0 1.025,7.764 c 0.021,0.02 0.048,0.037 0.071,0.059 -1.349,4.518 -1.145,10.324 -0.036,14.417 -0.144,0.132 -0.294,0.254 -0.426,0.399 a 6.327,6.327 0 0 0 -0.634,0.825 6.2,6.2 0 0 0 -0.71,1.578 c -3.371,0.488 -5.198,1.671 -6.824,2.729 -2.035,1.324 -3.961,2.572 -9.636,2.666 -1.963,-0.23 -3.552,-0.178 -5.29,-0.116 -1.43,0.052 -2.91,0.105 -4.848,0.003 -1.335,-0.071 -2.104,-0.882 -3.458,-2.424 -1.803,-2.055 -4.219,-4.648 -9.369,-5.022 v 4 c 3.295,0.299 4.796,1.887 6.356,3.667 1.487,1.694 3.175,3.615 6.256,3.782 2.118,0.114 3.76,0.052 5.208,0.001 2.491,-0.092 4.453,-0.161 7.855,0.683 2.608,0.644 12.099,9.674 14.774,14.323 -0.109,0.142 -0.219,0.282 -0.314,0.434 -1.743,2.755 -1.026,6.385 1.62,8.251 0.072,0.052 0.151,0.104 0.283,0.191 0.981,0.621 2.11,0.948 3.267,0.948 a 6.081,6.081 0 0 0 5.173,-2.849 6.06,6.06 0 0 0 0.805,-4.603 6.1,6.1 0 0 0 -2.709,-3.845 6.128,6.128 0 0 0 -4.809,-0.749 c -2.56,-4.188 -8.652,-10.455 -13.189,-13.792 1.813,-0.628 3.05,-1.436 4.212,-2.188 1.427,-0.93 2.614,-1.69 4.857,-2.067 m 3.88,-26.926 a 2.096,2.096 0 0 1 1.783,-0.98 c 0.4,0 0.79,0.113 1.125,0.325 0.481,0.304 0.813,0.775 0.937,1.33 a 2.08,2.08 0 0 1 -0.28,1.584 c -0.597,0.951 -1.938,1.273 -2.912,0.653 l -0.093,-0.062 a 2.105,2.105 0 0 1 -0.56,-2.85 m 0,23.463 a 2.096,2.096 0 0 1 1.783,-0.98 c 0.4,0 0.79,0.112 1.125,0.326 0.481,0.304 0.813,0.774 0.937,1.329 a 2.083,2.083 0 0 1 -0.28,1.585 c -0.597,0.95 -1.938,1.272 -2.912,0.652 l -0.093,-0.062 a 2.105,2.105 0 0 1 -0.56,-2.85 m 0,26.304 a 2.099,2.099 0 0 1 1.783,-0.98 c 0.4,0 0.79,0.113 1.125,0.326 0.481,0.304 0.813,0.775 0.937,1.33 a 2.08,2.08 0 0 1 -0.28,1.584 c -0.597,0.951 -1.938,1.271 -2.912,0.653 l -0.093,-0.062 a 2.107,2.107 0 0 1 -0.56,-2.851"
         fill="#fffedb"
         style="fill:#ffffff" /><g
         id="g1579"
         opacity="0.25"><path
           id="path1577"
           d="m 53.783,104.537 c -0.239,0 -0.48,-0.072 -0.691,-0.219 a 1.21,1.21 0 0 1 -0.29,-1.684 c 0.273,-0.387 0.519,-0.799 0.73,-1.227 a 9.028,9.028 0 0 0 -0.501,-8.961 1.2080225,1.2080225 0 1 1 2.032,-1.307 c 2.176,3.389 2.42,7.736 0.633,11.34 a 11.833,11.833 0 0 1 -0.92,1.547 1.204,1.204 0 0 1 -0.993,0.511 m 5.556,2.877 a 1.207,1.207 0 0 1 -0.968,-1.922 c 0.453,-0.615 0.854,-1.279 1.198,-1.973 a 13.243,13.243 0 0 0 -1.251,-13.846 1.2071091,1.2071091 0 1 1 1.937,-1.441 15.643,15.643 0 0 1 1.478,16.357 c -0.404,0.818 -0.88,1.604 -1.414,2.33 a 1.213,1.213 0 0 1 -0.98,0.495 m -10.994,-5.928 a 1.21,1.21 0 0 1 -1.045,-1.802 4.802,4.802 0 0 0 0.18,-4.369 1.208,1.208 0 0 1 2.193,-1.01 7.22,7.22 0 0 1 -0.271,6.57 1.209,1.209 0 0 1 -1.057,0.611" /></g><g
         id="g1583"
         fill="#eb743b"
         style="fill:#ffffff"><path
           id="path1581"
           d="m 53.783,101.537 c -0.239,0 -0.48,-0.072 -0.691,-0.219 a 1.21,1.21 0 0 1 -0.29,-1.684 c 0.273,-0.387 0.519,-0.799 0.73,-1.227 a 9.028,9.028 0 0 0 -0.501,-8.961 1.2080225,1.2080225 0 1 1 2.032,-1.307 c 2.176,3.389 2.42,7.736 0.633,11.34 a 11.833,11.833 0 0 1 -0.92,1.547 1.204,1.204 0 0 1 -0.993,0.511 m 5.556,2.877 a 1.207,1.207 0 0 1 -0.968,-1.922 c 0.453,-0.615 0.854,-1.279 1.198,-1.973 a 13.243,13.243 0 0 0 -1.251,-13.846 1.2071091,1.2071091 0 1 1 1.937,-1.441 15.643,15.643 0 0 1 1.478,16.357 c -0.404,0.818 -0.88,1.604 -1.414,2.33 a 1.213,1.213 0 0 1 -0.98,0.495 M 48.345,98.486 a 1.21,1.21 0 0 1 -1.045,-1.802 4.802,4.802 0 0 0 0.18,-4.369 1.208,1.208 0 0 1 2.193,-1.01 7.22,7.22 0 0 1 -0.271,6.57 1.209,1.209 0 0 1 -1.057,0.611"
           style="fill:#ffffff" /></g><g
         id="g1589"
         style="fill:#ffffff"><path
           id="path1585"
           d="m 66.082,47.24 c -10.12,0 -20.365,3.656 -26.736,9.543 -6.886,6.361 -10.521,16.245 -10.348,27.989 a 3.99,3.99 0 0 0 -3.41,3.941 v 18.119 a 4,4 0 0 0 4,4 h 2.033 c 0.316,0 0.619,-0.047 0.914,-0.115 v 1.602 c 0,2.209 1.565,4 3.495,4 h 1.898 c 1.93,0 3.495,-1.791 3.495,-4 V 82.65 c 0,-2.209 -1.565,-4 -3.495,-4 H 36.03 c -1.717,0 -3.138,1.42 -3.432,3.288 0.065,-1.855 0.204,-3.652 0.435,-5.096 1.154,-7.232 4.119,-13.268 8.688,-17.488 5.664,-5.232 15.226,-8.613 24.361,-8.613 1.042,0 3.241,0.043 4.277,0.143 v -3.49 c -1.2,-0.117 -3.163,-0.154 -4.277,-0.154 z m -34.459,59.188 a 2.652,2.652 0 0 1 -2.651,-2.65 v -12.01 a 2.651,2.651 0 0 1 2.651,-2.652 h 0.913 v 17.312 z"
           opacity="0.25"
           style="fill:#000000" /><path
           id="path1587"
           d="m 66.082,44.24 c -10.12,0 -20.365,3.656 -26.736,9.543 -6.886,6.361 -10.521,16.245 -10.348,27.989 a 3.99,3.99 0 0 0 -3.41,3.941 v 18.119 a 4,4 0 0 0 4,4 h 2.033 c 0.316,0 0.619,-0.047 0.914,-0.115 v 1.602 c 0,2.209 1.565,4 3.495,4 h 1.898 c 1.93,0 3.495,-1.791 3.495,-4 V 79.65 c 0,-2.209 -1.565,-4 -3.495,-4 H 36.03 c -1.717,0 -3.138,1.42 -3.432,3.287 0.065,-1.854 0.204,-3.651 0.435,-5.096 1.154,-7.232 4.119,-13.268 8.688,-17.488 5.664,-5.232 15.226,-8.613 24.361,-8.613 1.042,0 3.241,0.043 4.277,0.143 v -3.49 c -1.2,-0.116 -3.163,-0.153 -4.277,-0.153 z m -34.459,59.188 a 2.652,2.652 0 0 1 -2.651,-2.65 v -12.01 a 2.651,2.651 0 0 1 2.651,-2.652 h 0.913 v 17.312 z"
           fill="#fffedb"
           style="fill:#ffffff" /></g></g></g></svg>
