<?xml version="1.0" encoding="UTF-8" standalone="no"?>
<svg
   shape-rendering="geometricPrecision"
   text-rendering="geometricPrecision"
   image-rendering="optimizeQuality"
   fill-rule="evenodd"
   clip-rule="evenodd"
   viewBox="0 0 512 512"
   version="1.1"
   id="svg1"
   sodipodi:docname="tidal-round-black-icon.svg"
   inkscape:version="1.4 (e7c3feb100, 2024-10-09)"
   xmlns:inkscape="http://www.inkscape.org/namespaces/inkscape"
   xmlns:sodipodi="http://sodipodi.sourceforge.net/DTD/sodipodi-0.dtd"
   xmlns="http://www.w3.org/2000/svg"
   xmlns:svg="http://www.w3.org/2000/svg">
  <defs
     id="defs1" />
  <sodipodi:namedview
     id="namedview1"
     pagecolor="#ffffff"
     bordercolor="#000000"
     borderopacity="0.25"
     inkscape:showpageshadow="2"
     inkscape:pageopacity="0.0"
     inkscape:pagecheckerboard="0"
     inkscape:deskcolor="#d1d1d1"
     inkscape:zoom="2.2597656"
     inkscape:cx="386.32325"
     inkscape:cy="309.54538"
     inkscape:window-width="3440"
     inkscape:window-height="1368"
     inkscape:window-x="0"
     inkscape:window-y="0"
     inkscape:window-maximized="1"
     inkscape:current-layer="svg1" />
  <path
     id="path6"
     style="fill:#ffffff;stroke-width:1.15654;stroke-linecap:round"
     d="m 155.22461,169.07617 -50.38477,50.38086 50.38477,50.39258 50.39258,-50.39258 50.39062,50.38672 -50.39453,50.38867 50.39649,50.39453 50.38085,-50.39453 -50.3789,-50.39062 50.37305,-50.38282 50.39257,50.39063 50.38282,-50.39258 -50.38282,-50.38086 -50.38867,50.375 -50.3789,-50.36914 -50.39649,50.37109 z" />
  <path
     id="path4"
     style=""
     d="M 256 0 C 114.615 0 0 114.615 0 256 C 0 397.385 114.615 512 256 512 C 397.385 512 512 397.385 512 256 C 512 114.615 397.385 0 256 0 z M 155.22461 169.07617 L 205.61328 219.45312 L 256.00977 169.08203 L 306.38867 219.45117 L 356.77734 169.07617 L 407.16016 219.45703 L 356.77734 269.84961 L 306.38477 219.45898 L 256.01172 269.8418 L 306.39062 320.23242 L 256.00977 370.62695 L 205.61328 320.23242 L 256.00781 269.84375 L 205.61719 219.45703 L 155.22461 269.84961 L 104.83984 219.45703 L 155.22461 169.07617 z " />
</svg>
